# xmcd CD database file
# Copyright (C) 1995-1998 Ti Kan
#
# Track frame offsets:
#	150
#	11842
#	21562
#	35350
#	46820
#	60397
#	71102
#	84300
#	97967
#	108745
#	120227
#	132230
#	144265
#	155190
#	166075
#	180522
#	190915
#	204190
#
# Disc length: 2892 seconds
#
# Revision: 1
# Processed by: cddbd v1.4b42PL1 Copyright (c) Steve Scherf et al.
# Submitted via: CDex 1.30Release
#
DISCID=eb0b4a12
DTITLE=Woody Guthrie - Cowboy Songs/Southern Mountain Hoedowns
DYEAR=1900
DGENRE=Country
TTITLE0=Chisholm Trail
TTITLE1=Billy The Kid
TTITLE2=Whoopie Ti Yi Yo
TTITLE3=Philadelphia Lawyer
TTITLE4=Ride Around Little Dogies
TTITLE5=Gambling Man
TTITLE6=Red River Valley
TTITLE7=Jesse James
TTITLE8=Cripple Creek
TTITLE9=Buffalo Gals
TTITLE10=Old Dan Tucker
TTITLE11=Salty Dog Breakdown
TTITLE12=Joe Clark
TTITLE13=Sally Gooden
TTITLE14=Froggy Went A-Courting
TTITLE15=Ida Red
TTITLE16=Fiddle Breakdown
TTITLE17=Hoe Cakes Baking
EXTD=ID3G:   2
EXTT0=
EXTT1=
EXTT2=
EXTT3=
EXTT4=
EXTT5=
EXTT6=
EXTT7=
EXTT8=
EXTT9=
EXTT10=
EXTT11=
EXTT12=
EXTT13=
EXTT14=
EXTT15=
EXTT16=
EXTT17=
PLAYORDER=
